HIERARCHY
ROOT joint_Root
{
	OFFSET 0.0 0.0 0.0
	CHANNELS 6 Xposition Yposition Zposition Zrotation Xrotation Yrotation 
	JOINT Hips
	{
		OFFSET -17.1583 93.1646 452.98
		CHANNELS 6 Xposition Yposition Zposition Zrotation Xrotation Yrotation 
		JOINT Spine
		{
			OFFSET 15.7357 0.0 0.0
			CHANNELS 6 Xposition Yposition Zposition Zrotation Xrotation Yrotation 
			JOINT Chest
			{
				OFFSET 8.98455 -0.406207 0.0
				CHANNELS 6 Xposition Yposition Zposition Zrotation Xrotation Yrotation 
				JOINT Neck
				{
					OFFSET 16.3773 0.0 0.0
					CHANNELS 6 Xposition Yposition Zposition Zrotation Xrotation Yrotation 
					JOINT Head
					{
						OFFSET 6.45672 0.0 0.0
						CHANNELS 6 Xposition Yposition Zposition Zrotation Xrotation Yrotation 
						End Site
						{
							OFFSET 0.0 0.0 0.0
						}
					}
				}
				JOINT Shoulder_L
				{
					OFFSET 12.9942 -0.242716 4.98039
					CHANNELS 6 Xposition Yposition Zposition Zrotation Xrotation Yrotation 
					JOINT UpperArm_L
					{
						OFFSET 5.34809 0.0 0.0
						CHANNELS 6 Xposition Yposition Zposition Zrotation Xrotation Yrotation 
						JOINT LowerArm_L
						{
							OFFSET 24.3286 1.87007e-05 0.0
							CHANNELS 6 Xposition Yposition Zposition Zrotation Xrotation Yrotation 
							JOINT Hand_L
							{
								OFFSET 22.2916 0.0 0.0
								CHANNELS 6 Xposition Yposition Zposition Zrotation Xrotation Yrotation 
								End Site
								{
									OFFSET 0.0 0.0 0.0
								}
							}
						}
					}
				}
				JOINT Shoulder_R
				{
					OFFSET 12.9945 -0.242716 -4.98039
					CHANNELS 6 Xposition Yposition Zposition Zrotation Xrotation Yrotation 
					JOINT UpperArm_R
					{
						OFFSET -5.34813 0.0 0.0
						CHANNELS 6 Xposition Yposition Zposition Zrotation Xrotation Yrotation 
						JOINT LowerArm_R
						{
							OFFSET -24.3289 0.000322201 0.0
							CHANNELS 6 Xposition Yposition Zposition Zrotation Xrotation Yrotation 
							JOINT Hand_R
							{
								OFFSET -22.2915 -0.000108084 0.0
								CHANNELS 6 Xposition Yposition Zposition Zrotation Xrotation Yrotation 
								End Site
								{
									OFFSET 0.0 0.0 0.0
								}
							}
						}
					}
				}
			}
		}
		JOINT UpperLeg_L
		{
			OFFSET -2.19248 -6.46944 0.0
			CHANNELS 6 Xposition Yposition Zposition Zrotation Xrotation Yrotation 
			JOINT LowerLeg_L
			{
				OFFSET 39.0811 0.0 -1.23785e-05
				CHANNELS 6 Xposition Yposition Zposition Zrotation Xrotation Yrotation 
				JOINT Foot_L
				{
					OFFSET 40.9854 0.0 -1.26872e-05
					CHANNELS 6 Xposition Yposition Zposition Zrotation Xrotation Yrotation 
					JOINT Toes_L
					{
						OFFSET 11.7543 0.0 0.0
						CHANNELS 6 Xposition Yposition Zposition Zrotation Xrotation Yrotation 
						End Site
						{
							OFFSET 0.0 0.0 0.0
						}
					}
				}
			}
		}
		JOINT UpperLeg_R
		{
			OFFSET -2.19251 6.46944 0.0
			CHANNELS 6 Xposition Yposition Zposition Zrotation Xrotation Yrotation 
			JOINT LowerLeg_R
			{
				OFFSET -39.0811 -0.00228153 -0.0401928
				CHANNELS 6 Xposition Yposition Zposition Zrotation Xrotation Yrotation 
				JOINT Foot_R
				{
					OFFSET -40.9854 0.0 0.0
					CHANNELS 6 Xposition Yposition Zposition Zrotation Xrotation Yrotation 
					JOINT Toes_R
					{
						OFFSET -11.7543 0.0 0.0
						CHANNELS 6 Xposition Yposition Zposition Zrotation Xrotation Yrotation 
						End Site
						{
							OFFSET 0.0 0.0 0.0
						}
					}
				}
			}
		}
	}
}
MOTION
Frames:	6
Frame Time:	0.0333333
0.000000 0.000000 0.000000 0.000000 0.000000 -0.000000 -4.385370 92.906900 1.427020 87.593200 2.587800 1.392560 15.735700 0.000005 -0.000001 67.350500 87.528700 -66.238800 8.984550 -0.406207 -0.000000 -3.185070 -2.008690 2.168290 16.377300 -0.000001 -0.000001 4.295130 2.012660 -1.941920 6.456720 -0.000001 -0.000000 4.585080 3.031160 -1.830710 12.994200 -0.242716 4.980390 -92.576500 7.908880 -71.890500 5.348090 -0.000007 -0.000001 -73.678400 27.165500 2.110400 24.328600 0.000019 0.000005 12.232300 27.086200 -25.460600 22.291600 -0.000001 0.000005 -1.735990 4.920170 8.973060 12.994500 -0.242716 -4.980390 88.919300 3.587890 -73.224900 -5.348130 -0.000001 -0.000004 -72.994900 29.843100 -3.142840 -24.328900 0.000322 -0.000009 -0.007080 -0.024102 -14.055700 -22.291500 -0.000108 -0.000004 -12.842000 5.085060 5.454100 -2.192480 -6.469440 -0.000000 -170.784000 -6.080040 0.165139 39.081100 -0.000007 -0.000012 0.018888 -0.070805 14.937000 40.985400 -0.000006 -0.000013 -3.017620 13.082800 -68.669200 11.754300 -0.000000 0.000003 -0.002046 0.196917 -8.587610 -2.192510 6.469440 -0.000001 -179.656000 7.479190 -178.067000 -39.081100 -0.002282 -0.040193 0.035117 -0.134022 13.341300 -40.985400 0.000008 0.000006 -3.201170 3.647250 -69.586600 -11.754300 -0.000006 -0.000006 -0.010456 0.274684 -5.412760
0.000000 0.000000 0.000000 0.000000 0.000000 -0.000000 -4.301310 92.928400 1.389020 87.627000 2.572910 1.275070 15.735700 0.000005 -0.000001 66.805900 87.513500 -65.774100 8.984550 -0.406207 -0.000000 -3.176530 -2.056220 2.007270 16.377300 -0.000001 -0.000001 4.212650 2.047650 -2.090850 6.456720 -0.000001 -0.000000 4.375580 3.093120 -2.204560 12.994200 -0.242716 4.980390 -92.532300 7.775460 -71.897600 5.348090 -0.000007 -0.000001 -73.748100 27.089000 2.095990 24.328600 0.000019 0.000005 12.255100 27.179100 -25.432800 22.291600 -0.000001 0.000005 -1.762720 4.916290 9.051310 12.994500 -0.242716 -4.980390 88.962500 3.425640 -73.139900 -5.348130 -0.000001 -0.000004 -72.387400 29.338200 -3.447140 -24.328900 0.000322 -0.000009 0.069521 0.284999 -13.907100 -22.291500 -0.000108 -0.000004 -13.690300 5.088850 5.367480 -2.192480 -6.469440 -0.000000 -170.916000 -5.973080 0.093937 39.081100 -0.000007 -0.000012 0.020405 -0.077071 14.829400 40.985400 -0.000006 -0.000013 -2.979490 12.949900 -68.713100 11.754300 -0.000000 0.000003 -0.002103 0.197626 -8.558810 -2.192510 6.469440 -0.000001 -179.776000 7.670470 -178.143000 -39.081100 -0.002282 -0.040193 0.032898 -0.125925 13.212800 -40.985400 0.000008 0.000006 -3.361930 3.846110 -69.467700 -11.754300 -0.000006 -0.000006 -0.010453 0.274663 -5.413640
0.000000 0.000000 0.000000 0.000000 0.000000 -0.000000 -4.222730 92.937400 1.357730 87.589700 2.635250 1.122940 15.735700 0.000005 -0.000001 66.048900 87.507100 -65.085300 8.984550 -0.406207 -0.000000 -3.192140 -2.115150 1.868770 16.377300 -0.000001 -0.000001 4.157210 2.074240 -2.261540 6.456720 -0.000001 -0.000000 4.094360 3.073820 -2.610480 12.994200 -0.242716 4.980390 -92.503900 7.702990 -71.931400 5.348090 -0.000007 -0.000001 -73.733300 27.018700 2.062940 24.328600 0.000019 0.000005 12.248000 27.091400 -25.485900 22.291600 -0.000001 0.000005 -1.780260 4.912780 9.122030 12.994500 -0.242716 -4.980390 88.995300 3.271690 -72.918900 -5.348130 -0.000001 -0.000004 -71.368400 28.900800 -3.797470 -24.328900 0.000322 -0.000009 0.367473 1.474140 -14.036400 -22.291500 -0.000108 -0.000004 -14.799800 5.094790 5.232400 -2.192480 -6.469440 -0.000000 -170.973000 -5.910030 -0.123572 39.081100 -0.000007 -0.000012 0.023774 -0.089230 14.919200 40.985400 -0.000006 -0.000013 -2.913090 12.884800 -68.786400 11.754300 -0.000000 0.000003 -0.002071 0.197226 -8.575050 -2.192510 6.469440 -0.000001 -179.807000 7.825800 -178.265000 -39.081100 -0.002282 -0.040193 0.031029 -0.118928 13.109000 -40.985400 0.000008 0.000006 -3.522060 4.006320 -69.358200 -11.754300 -0.000006 -0.000006 -0.010537 0.275272 -5.388690
0.000000 0.000000 0.000000 0.000000 0.000000 -0.000000 -4.097410 92.957700 1.333830 87.603700 2.631520 1.015450 15.735700 0.000005 -0.000001 65.254200 87.482800 -64.379000 8.984550 -0.406207 -0.000000 -3.177730 -2.189930 1.690130 16.377300 -0.000001 -0.000001 4.050170 2.106860 -2.480850 6.456720 -0.000001 -0.000000 3.872420 3.098170 -3.069050 12.994200 -0.242716 4.980390 -92.480100 7.630380 -71.934200 5.348090 -0.000007 -0.000001 -73.749700 26.835900 2.105080 24.328600 0.000019 0.000005 12.256200 26.974400 -25.590700 22.291600 -0.000001 0.000005 -1.742160 4.915500 9.067240 12.994500 -0.242716 -4.980390 89.045300 3.056920 -72.646900 -5.348130 -0.000001 -0.000004 -69.843700 28.442400 -4.285370 -24.328900 0.000322 -0.000009 0.852237 3.309960 -14.462900 -22.291500 -0.000108 -0.000004 -16.183400 5.097750 5.164890 -2.192480 -6.469440 -0.000000 -171.112000 -5.774900 -0.232541 39.081100 -0.000007 -0.000012 0.023904 -0.090073 14.863300 40.985400 -0.000006 -0.000013 -2.852510 12.697000 -68.736400 11.754300 -0.000000 0.000003 -0.002113 0.197757 -8.553480 -2.192510 6.469440 -0.000001 -179.955000 8.033420 -178.289000 -39.081100 -0.002282 -0.040193 0.027465 -0.105261 12.912100 -40.985400 0.000008 0.000006 -3.764420 4.267510 -69.144100 -11.754300 -0.000006 -0.000006 -0.010172 0.272589 -5.498460
0.000000 0.000000 0.000000 0.000000 0.000000 -0.000000 -3.948830 92.976400 1.312430 87.602600 2.618260 0.872631 15.735700 0.000005 -0.000001 64.641700 87.465900 -63.871100 8.984550 -0.406207 -0.000000 -3.171710 -2.243150 1.479480 16.377300 -0.000001 -0.000001 3.948640 2.100910 -2.661700 6.456720 -0.000001 -0.000000 3.518480 3.141880 -3.624020 12.994200 -0.242716 4.980390 -92.441800 7.528290 -71.970600 5.348090 -0.000007 -0.000001 -73.775900 26.562700 2.172740 24.328600 0.000019 0.000005 12.351200 26.875600 -25.845100 22.291600 -0.000001 0.000005 -1.647220 4.913330 9.110900 12.994500 -0.242716 -4.980390 89.109500 2.792110 -72.302700 -5.348130 -0.000001 -0.000004 -67.938100 27.403900 -4.736050 -24.328900 0.000322 -0.000009 1.470280 5.459220 -15.107800 -22.291500 -0.000108 -0.000004 -17.126000 5.109240 4.900660 -2.192480 -6.469440 -0.000000 -171.253000 -5.661440 -0.358101 39.081100 -0.000007 -0.000012 0.026411 -0.099666 14.842400 40.985400 -0.000006 -0.000013 -2.758870 12.558400 -68.808600 11.754300 -0.000000 0.000003 -0.002076 0.197294 -8.572310 -2.192510 6.469440 -0.000001 179.908000 8.127400 -178.371000 -39.081100 -0.002282 -0.040193 0.024324 -0.092611 12.770100 -40.985400 0.000008 0.000006 -4.186870 4.493820 -69.005000 -11.754300 -0.000006 -0.000006 -0.010626 0.275922 -5.362110
0.000000 0.000000 0.000000 0.000000 0.000000 -0.000000 -3.800840 92.993500 1.305070 87.573300 2.658230 0.690908 15.735700 0.000005 -0.000001 63.397300 87.443300 -62.737900 8.984550 -0.406207 -0.000000 -3.181390 -2.351690 1.253780 16.377300 -0.000001 -0.000001 3.857540 2.088350 -2.885430 6.456720 -0.000001 -0.000000 3.085520 3.186390 -4.209550 12.994200 -0.242716 4.980390 -92.401000 7.413470 -71.997900 5.348090 -0.000007 -0.000001 -73.777500 26.285100 2.177710 24.328600 0.000019 0.000005 12.387000 26.752700 -26.007800 22.291600 -0.000001 0.000005 -1.605660 4.914630 9.084710 12.994500 -0.242716 -4.980390 89.175500 2.525860 -71.915100 -5.348130 -0.000001 -0.000004 -65.417400 26.082900 -5.375750 -24.328900 0.000322 -0.000009 1.879370 6.790770 -15.517600 -22.291500 -0.000108 -0.000004 -17.899400 5.115930 4.746190 -2.192480 -6.469440 -0.000000 -171.346000 -5.678890 -0.601062 39.081100 -0.000007 -0.000012 0.025569 -0.096227 14.881000 40.985400 -0.000006 -0.000013 -2.657980 12.532800 -68.754400 11.754300 -0.000000 0.000003 -0.002049 0.196958 -8.585970 -2.192510 6.469440 -0.000001 179.818000 8.242710 -178.428000 -39.081100 -0.002282 -0.040193 0.020418 -0.077078 12.497200 -40.985400 0.000008 0.000006 -4.484090 4.604190 -68.735900 -11.754300 -0.000006 -0.000006 -0.010220 0.272939 -5.484160
